<svg width="21" height="20" viewBox="0 0 21 20" fill="none" xmlns="http://www.w3.org/2000/svg">
<path d="M1.50001 9.75127C1.49979 8.30298 1.88082 6.88015 2.60482 5.62581C3.32882 4.37148 4.37026 3.32983 5.62445 2.60559C6.87865 1.88135 8.3014 1.50003 9.74969 1.49998C11.198 1.49992 12.6208 1.88112 13.875 2.60527C14.0472 2.70315 14.2511 2.72897 14.4422 2.67708C14.6333 2.62519 14.7962 2.4998 14.8952 2.32829C14.9942 2.15677 15.0214 1.95305 14.9708 1.76158C14.9202 1.57011 14.7959 1.40643 14.625 1.30627C12.7663 0.233138 10.6054 -0.196702 8.47754 0.083406C6.34964 0.363514 4.37362 1.33792 2.85594 2.8555C1.33826 4.37308 0.363733 6.34904 0.0834877 8.47692C-0.196757 10.6048 0.232945 12.7657 1.30595 14.6245C2.37896 16.4833 4.03531 17.936 6.01813 18.7575C8.00094 19.579 10.1994 19.7233 12.2726 19.168C14.3458 18.6127 16.1778 17.3889 17.4845 15.6863C18.7913 13.9837 19.4997 11.8975 19.5 9.75127C19.5 9.55235 19.421 9.36159 19.2803 9.22094C19.1397 9.08028 18.9489 9.00127 18.75 9.00127C18.5511 9.00127 18.3603 9.08028 18.2197 9.22094C18.079 9.36159 18 9.55235 18 9.75127C18 11.9393 17.1308 14.0377 15.5836 15.5849C14.0365 17.1321 11.938 18.0013 9.75001 18.0013C7.56198 18.0013 5.46356 17.1321 3.91638 15.5849C2.36921 14.0377 1.50001 11.9393 1.50001 9.75127Z" fill="white"/>
<path d="M20.781 2.78219C20.8507 2.71246 20.906 2.62968 20.9438 2.53857C20.9815 2.44746 21.0009 2.34981 21.0009 2.25119C21.0009 2.15258 20.9815 2.05493 20.9438 1.96382C20.906 1.87271 20.8507 1.78992 20.781 1.72019C20.7112 1.65046 20.6285 1.59515 20.5373 1.55741C20.4462 1.51967 20.3486 1.50024 20.25 1.50024C20.1514 1.50024 20.0537 1.51967 19.9626 1.55741C19.8715 1.59515 19.7887 1.65046 19.719 1.72019L9.74997 11.6907L5.78097 7.72019C5.71124 7.65046 5.62846 7.59514 5.53735 7.55741C5.44624 7.51967 5.34859 7.50024 5.24997 7.50024C5.15136 7.50024 5.0537 7.51967 4.9626 7.55741C4.87149 7.59514 4.7887 7.65046 4.71897 7.72019C4.64924 7.78992 4.59392 7.87271 4.55619 7.96382C4.51845 8.05492 4.49902 8.15258 4.49902 8.25119C4.49902 8.34981 4.51845 8.44746 4.55619 8.53857C4.59392 8.62968 4.64924 8.71246 4.71897 8.78219L9.21897 13.2822C9.28864 13.352 9.3714 13.4074 9.46252 13.4453C9.55364 13.4831 9.65132 13.5025 9.74997 13.5025C9.84862 13.5025 9.9463 13.4831 10.0374 13.4453C10.1285 13.4074 10.2113 13.352 10.281 13.2822L20.781 2.78219Z" fill="white"/>
</svg>
